<svg width="97" height="24" viewBox="0 0 97 24" fill="none" xmlns="http://www.w3.org/2000/svg">
  <path d="M32.0037 6.1394H36.0647C37.9375 6.1394 38.864 7.00681 38.864 8.74161C38.864 8.97818 38.8443 9.2936 38.7852 9.66816C38.6472 10.5947 38.3515 11.265 37.9375 11.6592C37.5235 12.0535 37.0504 12.3295 36.5378 12.4675L37.9178 16.9031H36.0844L34.8819 12.7632L32.7725 12.7238L32.1022 16.9228H30.2886L32.0037 6.1394ZM35.1381 11.3241C35.6704 11.3241 36.0647 11.2058 36.3604 10.9495C36.6561 10.6933 36.8532 10.2201 36.9518 9.54988C36.9715 9.43159 36.9715 9.25417 36.9715 9.01761C36.9715 8.18963 36.5378 7.77564 35.6704 7.77564H33.5216L32.9696 11.3241H35.1381Z" fill="#3E3E3E"/>
  <path d="M42.6489 17.0016C41.545 17.0016 40.7564 16.7651 40.2636 16.2919C39.7707 15.8188 39.5342 15.1091 39.5342 14.1431C39.5342 13.7489 39.5736 13.2363 39.6722 12.6055C39.8496 11.3635 40.2833 10.4567 40.9339 9.88498C41.6041 9.29357 42.5307 9.01758 43.7135 9.01758C44.6006 9.01758 45.3103 9.195 45.8426 9.53013C46.3748 9.86527 46.6311 10.437 46.6311 11.2847C46.6311 12.2703 46.3157 12.9603 45.7046 13.3349C45.0737 13.7094 44.226 13.8869 43.1615 13.8869C42.4124 13.8869 41.821 13.8277 41.3478 13.7094C41.3281 13.9263 41.3084 14.1431 41.3084 14.36C41.3084 14.8134 41.4661 15.1485 41.7815 15.3654C42.097 15.5625 42.6292 15.6808 43.3389 15.6808H45.7834L45.606 16.7454C44.7189 16.9228 43.7332 17.0016 42.6489 17.0016ZM42.6687 12.842C43.4375 12.842 44.0289 12.7435 44.3838 12.5266C44.7583 12.3098 44.9555 11.9549 44.9555 11.4424C44.9555 11.0678 44.8372 10.8115 44.6203 10.6341C44.4035 10.4567 44.0486 10.3778 43.5952 10.3778C42.9446 10.3778 42.4518 10.575 42.1364 10.9692C41.821 11.3635 41.5844 11.9549 41.4661 12.7435C41.8407 12.8026 42.235 12.842 42.6687 12.842Z" fill="#3E3E3E"/>
  <path d="M50.2981 17.0018C49.6869 17.0018 49.1152 16.9821 48.5238 16.923C47.9521 16.8835 47.4987 16.8047 47.1636 16.7061L47.3213 15.6416H50.6726C51.3823 15.6416 51.7766 15.405 51.8554 14.9122L51.9146 14.4982L51.9343 14.3207C51.9343 13.9462 51.678 13.7491 51.1852 13.7491H49.9235C49.2532 13.7491 48.721 13.6308 48.3464 13.3745C47.9718 13.1182 47.7747 12.7437 47.7747 12.2508C47.7747 11.9748 47.7944 11.758 47.8141 11.6003L47.9127 11.0286C48.0113 10.378 48.307 9.88516 48.7801 9.53032C49.2532 9.17547 49.9826 8.99805 50.988 8.99805C51.4414 8.99805 51.9737 9.03747 52.5454 9.09662C53.1368 9.15576 53.5902 9.23461 53.9451 9.31347L53.7677 10.378H50.6529C50.2981 10.378 50.0221 10.4371 49.8644 10.5554C49.7066 10.6737 49.5884 10.8708 49.5292 11.1468L49.4898 11.4623C49.4701 11.62 49.4504 11.7383 49.4504 11.8368C49.4504 11.9945 49.5095 12.1325 49.6475 12.2114C49.7658 12.2705 49.9826 12.31 50.2981 12.31H51.678C52.2891 12.31 52.7623 12.4479 53.1171 12.7239C53.472 12.9999 53.6494 13.3745 53.6494 13.8476C53.6494 14.025 53.6297 14.2222 53.61 14.4193L53.5114 15.129C53.4128 15.7993 53.0777 16.2921 52.5257 16.5878C51.9737 16.8638 51.2443 17.0018 50.2981 17.0018Z" fill="#3E3E3E"/>
  <path d="M57.8286 16.9231C56.3501 16.9231 55.6009 16.3514 55.6009 15.1883C55.6009 14.8334 55.6404 14.38 55.7389 13.8674L56.3303 10.5753H55.0884L55.2855 9.41215L56.6063 9.11644L57.1977 6.92822H58.6171L58.2623 9.11644H60.2534L60.0365 10.5753H58.0454L57.5132 13.8872C57.454 14.2223 57.4146 14.4983 57.4146 14.7151C57.4146 14.9714 57.4737 15.1686 57.6117 15.3065C57.7497 15.4248 57.9666 15.5037 58.2623 15.5234L59.1691 15.6023L58.9523 16.9231H57.8286Z" fill="#3E3E3E"/>
  <path d="M61.9489 8.50511C62.2052 6.94773 63.0923 6.15918 64.6103 6.15918C65.8522 6.15918 67.3308 6.21832 69.0656 6.31689L68.829 7.81513H64.906C64.5314 7.81513 64.2554 7.9137 64.0583 8.09112C63.8809 8.26855 63.7429 8.54454 63.6837 8.93881L63.3683 10.989L67.6659 11.1073L67.4293 12.5267L63.1318 12.6253L62.4418 16.9229H60.6084L61.9489 8.50511Z" fill="#3E3E3E"/>
  <path d="M69.7752 9.09662H71.372L71.4311 10.0823C72.1605 9.35289 72.8899 8.99805 73.6588 8.99805C74.0136 8.99805 74.2896 9.03747 74.5065 9.09662L74.2502 10.8906C73.9545 10.8708 73.639 10.8511 73.2842 10.8511C72.5351 10.8511 71.8451 11.068 71.2143 11.5214L70.3469 16.9032H68.5332L69.7752 9.09662Z" fill="#3E3E3E"/>
  <path d="M77.8385 17.0018C75.8277 17.0018 74.8223 16.095 74.8223 14.301C74.8223 13.8279 74.8617 13.3351 74.9405 12.8422C75.0983 11.8171 75.3545 11.0088 75.67 10.4569C76.0051 9.90488 76.4388 9.53032 76.9711 9.31347C77.5033 9.09662 78.213 8.99805 79.0804 8.99805C79.8493 8.99805 80.4604 9.09662 80.8941 9.31347C81.3278 9.5106 81.6432 9.82602 81.8206 10.24C81.9981 10.6343 82.0769 11.1666 82.0769 11.8368C82.0769 12.31 82.0375 12.8225 81.9389 13.3942C81.8009 14.3405 81.5644 15.0896 81.2292 15.6219C80.9138 16.1344 80.4801 16.509 79.9281 16.7258C79.3958 16.9032 78.7059 17.0018 77.8385 17.0018ZM78.0356 15.543C78.489 15.543 78.8439 15.4839 79.1001 15.3459C79.3564 15.2276 79.5733 14.991 79.7507 14.6362C79.9084 14.2813 80.0464 13.7688 80.1647 13.0985C80.2435 12.4282 80.3027 11.9748 80.3027 11.7185C80.3027 11.2454 80.1844 10.9103 79.9675 10.7131C79.7507 10.516 79.3761 10.3977 78.8636 10.3977C78.4102 10.3977 78.0553 10.4766 77.7793 10.6146C77.523 10.7526 77.3062 11.0286 77.1288 11.4031C76.9711 11.7777 76.8331 12.3494 76.7148 13.0788C76.6556 13.5913 76.6162 13.9462 76.6162 14.1828C76.6162 14.6953 76.7345 15.0304 76.9711 15.2276C77.1879 15.4641 77.5625 15.543 78.0356 15.543Z" fill="#3E3E3E"/>
  <path d="M84.107 9.09655H85.6053L85.8024 9.90482C86.6895 9.29369 87.6358 8.97827 88.6412 8.97827C89.2917 8.97827 89.7846 9.13598 90.1197 9.47111C90.4548 9.78653 90.6323 10.2202 90.6323 10.7722C90.6323 11.1665 90.5928 11.6593 90.4943 12.2902L89.7451 16.9032H87.9512L88.6609 12.3493C88.72 11.9748 88.7397 11.7185 88.7397 11.5805C88.7397 10.9299 88.3652 10.5948 87.6358 10.5948C87.2612 10.5948 86.9261 10.6539 86.5909 10.7919C86.2755 10.9102 85.9404 11.0876 85.6053 11.3242L84.7181 16.9229H82.8848L84.107 9.09655Z" fill="#3E3E3E"/>
  <path d="M94.5752 16.9231C93.0966 16.9231 92.3475 16.3514 92.3475 15.1883C92.3475 14.8334 92.3869 14.38 92.4855 13.8674L93.0769 10.5753H91.835L92.0321 9.41215L93.3529 9.11644L93.9443 6.92822H95.3637L95.0089 9.11644H97L96.7831 10.5753H94.792L94.2598 13.8872C94.2006 14.2223 94.1612 14.4983 94.1612 14.7151C94.1612 14.9714 94.2203 15.1686 94.3583 15.3065C94.4963 15.4248 94.7132 15.5037 95.0089 15.5234L95.9157 15.6023L95.6988 16.9231H94.5752Z" fill="#3E3E3E"/>
  <path d="M11.9399 0C5.35916 0 0 5.12303 0 11.7038C0 18.2845 5.35916 23.6437 11.9399 23.6437C18.5206 23.6437 23.8798 18.2845 23.8798 11.7038C23.8798 5.12303 18.5206 0 11.9399 0ZM11.9399 22.0674C6.22609 22.0674 1.57623 17.4176 1.57623 11.7038C1.57623 8.63013 2.91602 5.87174 5.06362 3.96056L4.66957 6.12787C4.63016 6.2855 4.66957 6.46282 4.76808 6.58104C4.86659 6.71896 5.00451 6.81747 5.16214 6.83718L5.6153 6.91599C5.95025 6.97509 6.26549 6.75836 6.3246 6.42342L6.9748 2.8375C7.52647 2.54196 8.07815 2.30553 8.66924 2.1282L7.46737 8.72865C7.32945 9.47735 7.36885 10.2261 7.56588 10.9551L7.62499 11.1718C7.7038 11.4476 7.95994 11.625 8.21607 11.625C8.27518 11.625 8.33429 11.625 8.37369 11.6053L8.80716 11.487C9.14211 11.3885 9.33913 11.0536 9.24062 10.7186L9.18151 10.5019C9.04359 10.0093 9.02389 9.51676 9.1224 9.02419L10.4425 1.81296C10.4425 1.77355 10.4622 1.75385 10.4819 1.73415C10.9351 1.67504 11.3882 1.63563 11.8414 1.63563C13.6935 1.63563 15.447 2.1282 17.0035 3.01483C17.0035 3.05423 17.0035 3.09364 17.0035 3.11334L16.2942 6.9948C16.2548 7.15242 16.2942 7.32975 16.3927 7.44796C16.4913 7.58588 16.6292 7.6844 16.7868 7.7041L17.24 7.78291C17.3976 7.82232 17.5749 7.78291 17.6931 7.6844C17.831 7.58588 17.9296 7.44796 17.9493 7.29034L18.5403 4.09848C19.0329 4.51224 19.4861 4.98511 19.8998 5.49738L18.895 10.9748C18.698 12.0584 18.2251 13.1027 17.5158 13.9499L17.3582 14.1469C17.2597 14.2651 17.2006 14.4425 17.2203 14.6001C17.24 14.7577 17.3188 14.9153 17.437 15.0138L17.7916 15.3094C17.9099 15.4079 18.0478 15.4473 18.1857 15.4473C18.2054 15.4473 18.2251 15.4473 18.2448 15.4473C18.4024 15.4276 18.56 15.3488 18.6586 15.2306L18.7965 15.0532C19.6831 13.9696 20.2742 12.6889 20.5303 11.3097L21.279 7.27064C21.9292 8.63013 22.2839 10.1275 22.2839 11.7432C22.3036 17.4176 17.6537 22.0674 11.9399 22.0674Z" fill="#3E3E3E"/>
  <path d="M16.7276 15.4473C16.6488 15.3094 16.5109 15.2109 16.3532 15.1715C16.1956 15.1321 16.0183 15.1518 15.8804 15.2306L15.6833 15.3488C14.4224 16.1566 12.7279 16.4522 11.132 16.1566C7.6249 15.5261 5.28026 12.2555 5.81224 8.72866L5.85164 8.51193C5.87135 8.35431 5.83194 8.17699 5.73343 8.05877C5.63491 7.92085 5.49699 7.84204 5.31967 7.82234L4.8665 7.76323C4.70888 7.74352 4.53155 7.78293 4.41334 7.88144C4.27542 7.97996 4.19661 8.11788 4.1769 8.2952L4.1375 8.49223C3.82225 10.6201 4.33453 12.748 5.59551 14.5016C6.85649 16.2551 8.70855 17.4373 10.8365 17.8314C11.329 17.9299 11.8216 17.9693 12.3339 17.9693C13.7525 17.9693 15.2696 17.5555 16.57 16.8068L16.767 16.6886C16.9049 16.6098 17.0034 16.4719 17.0428 16.3142C17.0822 16.1566 17.0625 15.9793 16.9837 15.8414L16.7276 15.4473Z" fill="#3E3E3E"/>
  <path d="M9.20124 13.4966C9.93024 14.1271 10.5804 14.4227 11.5065 14.6C11.802 14.6591 12.1173 14.6788 12.4128 14.6788C13.4373 14.6788 14.4225 14.3636 15.25 13.7922C16.3534 13.0238 17.1021 11.881 17.3385 10.5609L17.5355 9.47726C17.5552 9.31964 17.5355 9.16201 17.437 9.02409C17.3385 8.88617 17.2006 8.80736 17.043 8.76796L16.5898 8.68915C16.2548 8.63004 15.9396 8.84677 15.8805 9.18172L15.6835 10.2654C15.5258 11.1323 15.0333 11.9007 14.3043 12.413C13.5753 12.9253 12.6886 13.1026 11.802 12.945C11.1715 12.8267 10.8169 12.7282 10.3637 12.2751L10.1864 12.1174C10.0682 11.9992 9.91054 11.9401 9.75291 11.9401C9.59529 11.9401 9.43767 12.0189 9.31945 12.1371L9.00421 12.4721C8.76777 12.7085 8.78748 13.1026 9.02391 13.339L9.20124 13.4966Z" fill="#3E3E3E"/>
  <path d="M11.8808 11.1523L12.2551 11.2114C12.3537 11.2311 12.4719 11.2311 12.5704 11.2311C12.9053 11.2311 13.2206 11.1326 13.4964 10.9553C13.8708 10.6992 14.1466 10.2854 14.2451 9.79284L15.2697 4.35486C15.447 3.42883 14.8362 2.5422 13.9102 2.36487L13.6737 2.32547C13.5161 2.30577 13.3782 2.32547 13.2403 2.42398C13.1221 2.50279 13.0235 2.64071 13.0038 2.77863L12.925 3.2318C12.8659 3.54704 13.063 3.84259 13.3782 3.90169L13.5949 3.9411C13.654 3.9608 13.6934 4.01991 13.6737 4.07902L12.6492 9.5761C12.6492 9.61551 12.6295 9.63521 12.6098 9.65492C12.5901 9.67462 12.5704 9.67462 12.531 9.67462L12.1566 9.59581C12.0975 9.57611 12.0581 9.517 12.0778 9.45789L12.8659 5.30059C12.8856 5.14297 12.8659 5.00505 12.7674 4.86713C12.6886 4.74892 12.5507 4.6504 12.4128 4.6307L11.9596 4.55189C11.6444 4.49278 11.3488 4.68981 11.2897 5.00505L10.5016 9.16235C10.4228 9.61551 10.5213 10.0687 10.7774 10.443C11.0533 10.8174 11.4276 11.0735 11.8808 11.1523Z" fill="#3E3E3E"/>
</svg>
